<?xml version="1.0" encoding="UTF-8"?>
<svg id="THREATS" xmlns="http://www.w3.org/2000/svg" viewBox="0 0 24 24">
  <defs>
    <style>
      .cls-1 {
        fill: none;
        stroke: #10141e;
        stroke-miterlimit: 10;
      }
    </style>
  </defs>
  <path class="cls-1" d="M13.09,11.95c-.91-1.36-.76-3.22.44-4.43l.97,1"/>
  <path class="cls-1" d="M19.5,9.84c0,.87-.24,1.75-.8,2.41-.07.08-.15.16-.22.24-.94.95-2.28,1.25-3.47.89"/>
  <line class="cls-1" x1="19.5" x2="19.5" y2="10.02"/>
  <path class="cls-1" d="M7.15,17.88l4.5,4.49c.2.19.51.19.71,0l8.99-8.98c.2-.2.2-.51,0-.71l-4.5-4.49"/>
  <path class="cls-1" d="M17.95,7.09l-11.9,11.89c-.2.19-.51.19-.71,0l-2.69-2.68c-.2-.2-.2-.51,0-.71L14.56,3.7c.2-.19.51-.19.71,0l2.69,2.68c.2.2.2.51,0,.71Z"/>
  <path class="cls-1" d="M8.6,9.65l-.79-.8c-1.42-1.44-3.74-1.45-5.17-.02h0c-.19.19-.19.5,0,.69l3.05,3.05,2.91-2.91Z"/>
  <path class="cls-1" d="M11.51,6.74l-3.01-3.06c-.19-.2-.51-.2-.71,0h0c-1.43,1.42-1.43,3.74,0,5.16l.81.81,2.91-2.91Z"/>
</svg>