<?xml version="1.0" encoding="UTF-8"?>
<svg id="PROCESS" xmlns="http://www.w3.org/2000/svg" viewBox="0 0 24 24">
  <defs>
    <style>
      .cls-1 {
        fill: none;
        stroke: #10141e;
        stroke-miterlimit: 10;
      }
    </style>
  </defs>
  <polyline class="cls-1" points="9.95 12.5 7.95 14.5 6.95 13.5"/>
  <polyline class="cls-1" points="9.95 7 7.95 9 6.95 8"/>
  <rect class="cls-1" x="7.45" y="17.5" width="2" height="2"/>
  <line class="cls-1" x1="11.95" y1="13.5" x2="16.95" y2="13.5"/>
  <line class="cls-1" x1="11.95" y1="8.5" x2="16.95" y2="8.5"/>
  <line class="cls-1" x1="11.95" y1="18.5" x2="16.95" y2="18.5"/>
  <path class="cls-1" d="M19.45,22c0,.28-.22.5-.5.5H4.95c-.28,0-.5-.22-.5-.5V2c0-.28.22-.5.5-.5"/>
  <path class="cls-1" d="M6.94,1.5h7.67c.13,0,.25.05.35.14l4.34,4.3c.1.09.15.22.15.36v13.7"/>
</svg>