<?xml version="1.0" encoding="UTF-8"?>
<svg id="DEVICES" xmlns="http://www.w3.org/2000/svg" viewBox="0 0 24 24">
  <defs>
    <style>
      .cls-1 {
        fill: none;
        stroke: #10141e;
        stroke-miterlimit: 10;
      }
    </style>
  </defs>
  <path class="cls-1" d="M2.5,15.5h19v3.5c0,.28-.22.5-.5.5H3c-.28,0-.5-.22-.5-.5v-3.5h0Z"/>
  <path class="cls-1" d="M16,12.5h-8c-.28,0-.5-.21-.5-.47v-5.06c0-.26.22-.47.5-.47h8c.28,0,.5.21.5.47v5.06c0,.26-.22.47-.5.47Z"/>
  <line class="cls-1" x1="8" y1="2.5" x2="16" y2="2.5"/>
  <line class="cls-1" x1="12" y1="2.5" x2="12" y2="6.5"/>
  <line class="cls-1" x1="12" y1="12.5" x2="12" y2="15.5"/>
  <path class="cls-1" d="M16.5,9.5h4.5c.28,0,.5.22.5.5v2"/>
  <line class="cls-1" x1="7.5" y1="9.5" x2="2.5" y2="9.5"/>
  <line class="cls-1" x1="2.5" y1="6" x2="2.5" y2="13"/>
</svg>